<svg xmlns="http://www.w3.org/2000/svg" width="70" height="54">
  <path class="logo-1 logo" d="M7.7.046v54.1h16.4v-8.6h-7.6v-36.9h7.6v-8.6zm37.8 0v8.6h7.6v36.9h-7.6v8.6h16.4V.046z"/>
  <path class="logo-2 logo" d="M47.49.003c-.604.001-1.234.015-1.89.043v8.6c14.1-1.4 3 13.5 10.6 18.5-7.5 4.9 3.5 19.8-10.6 18.5v8.6c29.3 1.2 5.4-22.9 24.4-23.1v-7.7c0-.1-6.2.4-7.8-3.4C60.65 12.781 66.231-.022 47.49.003zM21.807.005C-3.442.328 18.503 22.952 0 23.145v7.7s6.2-.4 7.8 3.4c1.6 7.5-4.4 20.9 16.6 20v-8.6c-14.1 1.3-3-13.6-10.6-18.5 7.5-4.9-3.5-19.8 10.6-18.5V.047a48.406 48.406 0 00-2.593-.04z"/>
  <path class="logo-3 logo" d="M20.834.007C7.436.257 7.699 7.052 7.699 13.146v27.9c0 6.8.901 13.8 16.301 13.1v-8.6c-5.7.5-7.4-1.5-7.8-4.5v-27.9c0-2.8 1.8-5.1 7.5-4.5v-8.6a46.64 46.64 0 00-2.866-.039zM48.32.103c-.852-.015-1.758 0-2.72.043v8.6c5.7-.5 7.4 1.5 7.8 4.5v27.9c0 2.8-1.8 5.1-7.5 4.5v8.6c16.4.7 16.1-6.6 16-13.1v-27.9C61.9 6.87 61.108.32 48.32.102z"/>
</svg>
